<svg width="24" height="24" viewBox="0 0 24 24" fill="none" xmlns="http://www.w3.org/2000/svg">
<path fill-rule="evenodd" clip-rule="evenodd" d="M12 4.87672H15.5617C16.2524 4.87672 16.6971 5.04075 17.0321 5.16431C17.1001 5.18941 17.1636 5.21284 17.2238 5.23289C17.5799 5.35161 17.9361 5.58905 18.1736 5.94522C18.411 6.18266 18.6484 6.53882 18.7672 6.89499C18.8859 7.25115 19.0046 7.72604 19.1233 8.55709V12.1187V15.6804C19.1233 16.3711 18.9593 16.8158 18.8357 17.1508C18.8106 17.2188 18.7872 17.2823 18.7672 17.3425C18.6484 17.6986 18.411 18.0548 18.0548 18.2922C17.773 18.5741 17.5655 18.7072 17.3147 18.8682C17.2486 18.9106 17.1794 18.955 17.1051 19.0046C16.7489 19.1233 16.274 19.242 15.443 19.3607H11.8813H8.31967C7.62895 19.3607 7.18426 19.1967 6.84929 19.0732C6.78127 19.0481 6.71768 19.0246 6.65757 19.0046C6.30141 18.8859 5.94525 18.6484 5.7078 18.2922C5.42597 18.0104 5.29281 17.8029 5.13185 17.5521C5.0894 17.486 5.04502 17.4168 4.99547 17.3425C4.87675 16.9863 4.75803 16.5114 4.63931 15.6804V12.1187V8.55709C4.63931 7.86636 4.80333 7.42168 4.92689 7.0867C4.95199 7.01865 4.97542 6.95513 4.99547 6.89499C5.11419 6.53882 5.35164 6.18266 5.7078 5.94522C5.98964 5.66338 6.19713 5.53023 6.44793 5.36927C6.51408 5.32683 6.58324 5.28244 6.65757 5.23289C7.01373 5.11417 7.48862 4.99544 8.31967 4.87672H12ZM12 3.33334H8.43839C7.74125 3.33334 7.236 3.46127 6.78179 3.57628C6.61719 3.61795 6.4593 3.65793 6.30141 3.68951C5.7078 3.92695 5.23291 4.16439 4.75803 4.758C4.28314 5.23289 3.92698 5.70777 3.68953 6.30138C3.45209 6.89499 3.33337 7.4886 3.33337 8.43837V12V15.5617C3.33337 16.2588 3.4613 16.7641 3.57631 17.2183C3.61798 17.3829 3.65796 17.5408 3.68953 17.6986C3.92698 18.2922 4.16442 18.7671 4.75803 19.242C5.23291 19.7169 5.7078 20.0731 6.30141 20.3105C6.89502 20.548 7.48862 20.6667 8.43839 20.6667H12H15.5617C16.2588 20.6667 16.7641 20.5387 17.2183 20.4237C17.3829 20.3821 17.5408 20.3421 17.6987 20.3105C18.2923 20.0731 18.7672 19.8356 19.242 19.242C19.7169 18.7671 20.0731 18.2922 20.3105 17.6986C20.548 17.105 20.6667 16.5114 20.6667 15.5617V12V8.43837C20.6667 7.74123 20.5388 7.23598 20.4238 6.78177C20.3821 6.61717 20.3421 6.45927 20.3105 6.30138C20.0731 5.70777 19.8357 5.23289 19.242 4.758C18.7672 4.28312 18.2923 3.92695 17.6987 3.68951C17.1051 3.45206 16.5115 3.33334 15.5617 3.33334H12ZM12.0002 7.60721C9.507 7.60721 7.48874 9.62548 7.48874 12.1186C7.48874 14.6118 9.507 16.63 12.0002 16.63C14.4933 16.63 16.5116 14.6118 16.5116 12.1186C16.5116 9.62548 14.4933 7.60721 12.0002 7.60721ZM12.0002 14.9679C10.3381 14.9679 9.03212 13.662 9.03212 11.9999C9.03212 10.3378 10.3381 9.03187 12.0002 9.03187C13.6623 9.03187 14.9682 10.3378 14.9682 11.9999C14.8495 13.662 13.5435 14.9679 12.0002 14.9679ZM16.6298 8.4384C17.2234 8.4384 17.6983 7.96351 17.6983 7.3699C17.6983 6.77629 17.2234 6.30141 16.6298 6.30141C16.0362 6.30141 15.5613 6.77629 15.5613 7.3699C15.5613 7.96351 16.0362 8.4384 16.6298 8.4384Z" fill="#292A2B"/>
</svg>
