<svg width="24" height="24" viewBox="0 0 24 24" fill="none" xmlns="http://www.w3.org/2000/svg">
<path fill-rule="evenodd" clip-rule="evenodd" d="M19.8153 5.41305C20.674 5.65218 21.348 6.3261 21.5762 7.1848C22.0001 8.75003 22.0001 12 22.0001 12C22.0001 12 22.0001 15.2609 21.5871 16.8153C21.348 17.6849 20.674 18.3588 19.8153 18.587C18.2501 19.0001 12.0001 19.0001 12.0001 19.0001C12.0001 19.0001 5.73916 19.0001 4.1848 18.587C3.3261 18.3479 2.64131 17.674 2.41305 16.8153C2 15.2501 2 12 2 12C2 12 2 8.75003 2.41305 7.1848C2.65218 6.3261 3.3261 5.65218 4.1848 5.41305C5.75003 5 12.0001 5 12.0001 5C12.0001 5 18.2501 5 19.8153 5.41305ZM15.1957 12L10 15V9L15.1957 12Z" fill="#292A2B"/>
</svg>
