<svg width="109" height="30" viewBox="0 0 109 30" fill="none" xmlns="http://www.w3.org/2000/svg">
<g clip-path="url(#clip0_162_437)">
<path d="M13.2996 30V11.3718C13.2996 5.09025 18.3899 0 24.6715 0V18.6282C24.6715 24.9097 19.5704 30 13.2996 30Z" fill="url(#paint0_linear_162_437)"/>
<path d="M11.3718 30V20.9783C11.3718 14.6968 6.28159 9.60651 0 9.60651V18.6282C0 24.9098 5.09025 30 11.3718 30Z" fill="url(#paint1_linear_162_437)"/>
<path d="M40.1047 25.7978H37.0397L33.1841 15.5957C33.0975 15.3574 33.0542 15.1191 33.0758 14.9025C33.0975 14.6859 33.1625 14.491 33.2599 14.3069C33.3683 14.1336 33.509 13.982 33.6715 13.8628C33.8448 13.7437 34.0397 13.6571 34.2455 13.6029C34.6679 13.5054 35.0794 13.5271 35.4693 13.6895C35.8592 13.852 36.13 14.1769 36.2924 14.6751L38.621 21.8664L40.917 14.6643C41.0794 14.1769 41.3394 13.852 41.7076 13.7004C42.0758 13.5379 42.4657 13.5054 42.8881 13.6137C43.1047 13.6679 43.2888 13.7545 43.4513 13.8737C43.6137 13.9928 43.7437 14.1444 43.8412 14.3177C43.9386 14.491 43.9928 14.6968 44.0036 14.9134C44.0145 15.1408 43.9711 15.3682 43.8845 15.6282L40.1047 25.7978Z" fill="#878991"/>
<path d="M46.9278 14.8159C47.0794 14.3935 47.3394 14.0794 47.7076 13.8737C48.0758 13.6679 48.4657 13.5596 48.8773 13.5596C49.2563 13.5596 49.6354 13.6679 49.9928 13.8737C50.3502 14.0903 50.5993 14.3935 50.7401 14.8159L54.6932 25.7978H51.3683L50.7726 23.9242H46.8845L46.3105 25.7978H43.0397L46.9278 14.8159ZM47.6643 21.3682H49.982L48.834 17.5993L47.6643 21.3682Z" fill="#878991"/>
<path d="M58.4729 17.1552C58.4621 17.4368 58.6246 17.6751 58.9603 17.8809C59.2961 18.0866 59.7618 18.2816 60.3683 18.4874L61.1047 18.7473C61.5488 18.9098 61.9495 19.1155 62.3069 19.3538C62.6643 19.5921 62.9675 19.8845 63.2275 20.2094C63.4766 20.5343 63.6715 20.9025 63.7906 21.3141C63.9098 21.7256 63.9531 22.1697 63.9314 22.657C63.8556 23.7401 63.4224 24.574 62.621 25.1697C61.8195 25.7653 60.7257 26.0578 59.3394 26.0578C58.6679 26.0578 58.0072 25.982 57.3899 25.8412C56.7618 25.7004 56.2419 25.4621 55.8303 25.1372C55.6896 25.0181 55.5704 24.8773 55.4621 24.7256C55.3646 24.574 55.2888 24.4007 55.2455 24.2383C55.2022 24.065 55.1914 23.8917 55.2238 23.6968C55.2563 23.5126 55.3213 23.3285 55.4405 23.1552C55.5488 22.982 55.7112 22.852 55.9062 22.7653C56.1119 22.6787 56.3069 22.6246 56.5127 22.6137C56.7726 22.6029 56.9892 22.6462 57.1408 22.7329C57.2924 22.8195 57.4441 22.9061 57.5849 22.9928C57.7581 23.1011 57.9747 23.1986 58.2455 23.2744C58.5163 23.3502 58.9062 23.3827 59.426 23.3827C59.8484 23.3827 60.1733 23.3069 60.4116 23.1552C60.639 23.0036 60.769 22.7653 60.7798 22.4296C60.7798 22.2888 60.7257 22.148 60.6174 22.0181C60.509 21.8881 60.3466 21.769 60.1408 21.6498C59.935 21.5415 59.6968 21.4332 59.426 21.3249C59.1553 21.2166 58.8628 21.1191 58.5488 21.0108C58.4296 20.9675 58.2997 20.9242 58.1589 20.87C58.0181 20.8159 57.9098 20.7726 57.8231 20.7292C57.2491 20.491 56.7834 20.1877 56.426 19.8303C56.0686 19.4729 55.8087 19.083 55.6354 18.6607C55.4621 18.2383 55.3646 17.8159 55.3646 17.3718C55.3646 16.9278 55.4188 16.5054 55.5488 16.1155C55.8087 15.3033 56.2961 14.6643 57.0109 14.2202C57.7257 13.7762 58.6029 13.5596 59.6318 13.5596C60.0217 13.5596 60.3683 13.5812 60.6715 13.6137C60.9639 13.6462 61.2347 13.6895 61.4621 13.7545C61.6896 13.8087 61.8845 13.8737 62.0578 13.9495C62.2202 14.0253 62.3827 14.1011 62.5235 14.1661C62.8809 14.361 63.1516 14.6209 63.3466 14.9675C63.5415 15.3141 63.5849 15.6607 63.4766 16.0289C63.3791 16.343 63.2058 16.5596 62.9675 16.6895C62.7293 16.8195 62.4693 16.8845 62.1769 16.8845C62.0686 16.8845 61.9386 16.8628 61.7979 16.8195C61.6571 16.7762 61.5488 16.7329 61.4838 16.6787C61.2997 16.5596 61.0722 16.4513 60.7906 16.3646C60.509 16.278 60.1408 16.2238 59.6859 16.2238C59.3177 16.2238 59.0361 16.2996 58.8303 16.4404C58.5921 16.6137 58.4838 16.852 58.4729 17.1552Z" fill="#878991"/>
<path d="M68.1661 14.8159C68.3177 14.3935 68.5777 14.0794 68.9459 13.8737C69.3141 13.6679 69.704 13.5596 70.1156 13.5596C70.4946 13.5596 70.8737 13.6679 71.2311 13.8737C71.5885 14.0903 71.8376 14.3935 71.9784 14.8159L75.9314 25.8087H72.6065L72.0109 23.935H68.1228L67.5488 25.8087H64.278L68.1661 14.8159ZM68.9026 21.3682H71.2203L70.0722 17.5993L68.9026 21.3682Z" fill="#878991"/>
<path d="M83.9026 21.0325V14.9892C83.9026 14.5235 84.0434 14.1661 84.3141 13.917C84.5957 13.6679 84.9098 13.5488 85.278 13.5488C85.6462 13.5488 85.9603 13.6679 86.2419 13.917C86.5235 14.1661 86.6535 14.5235 86.6535 14.9892V24.5199C86.6535 24.7473 86.6101 24.9531 86.5127 25.1264C86.4152 25.2997 86.3069 25.4405 86.1661 25.5704C86.0253 25.6896 85.8628 25.787 85.6896 25.8628C85.5163 25.9387 85.343 25.9712 85.1697 25.982C84.8015 26.0145 84.4332 25.9495 84.0542 25.8087C83.6751 25.6679 83.3827 25.4296 83.1878 25.1047L79.4946 18.5632V25.7979H76.7437V15.0975C76.7437 14.8701 76.787 14.6535 76.8845 14.4802C76.9712 14.2961 77.0903 14.1444 77.2419 14.0145C77.3827 13.8845 77.556 13.787 77.7293 13.7221C77.9134 13.6462 78.0867 13.6029 78.26 13.5813C78.6282 13.5379 78.9964 13.5921 79.3647 13.7437C79.7329 13.8953 80.0253 14.1336 80.2094 14.4585L83.9026 21.0325Z" fill="#878991"/>
<path d="M91.0181 25.7979V16.2888H88.7004C88.473 16.2888 88.2888 16.2455 88.1372 16.1697C87.9856 16.0939 87.8556 15.9856 87.7581 15.8556C87.6607 15.7257 87.5957 15.574 87.5415 15.4116C87.4982 15.2491 87.4766 15.0975 87.4766 14.9459C87.4766 14.7943 87.4982 14.6426 87.5415 14.4802C87.5849 14.3286 87.6607 14.1878 87.7581 14.0578C87.8556 13.9278 87.9748 13.8304 88.1372 13.7545C88.2888 13.6787 88.4838 13.6462 88.7004 13.6462H96.4766C96.6932 13.6462 96.8881 13.6787 97.0397 13.7545C97.1914 13.8304 97.3213 13.9278 97.4188 14.0578C97.5163 14.1878 97.5813 14.3286 97.6354 14.4802C97.6787 14.6318 97.7004 14.7943 97.7004 14.9459C97.7004 15.0975 97.6787 15.2491 97.6354 15.4116C97.5921 15.574 97.5163 15.7148 97.4188 15.8556C97.3213 15.9856 97.1914 16.0939 97.0397 16.1697C96.8881 16.2455 96.704 16.2888 96.4766 16.2888H94.1589V25.7979H91.0181Z" fill="#878991"/>
<path d="M100.538 14.8159C100.69 14.3935 100.949 14.0794 101.318 13.8737C101.686 13.6679 102.076 13.5596 102.487 13.5596C102.866 13.5596 103.246 13.6679 103.603 13.8737C103.96 14.0903 104.209 14.3935 104.35 14.8159L108.303 25.8087H104.978L104.383 23.935H100.495L99.9206 25.8087H96.6498L100.538 14.8159ZM101.285 21.3682H103.603L102.455 17.5993L101.285 21.3682Z" fill="#878991"/>
</g>
<defs>
<linearGradient id="paint0_linear_162_437" x1="18.9811" y1="30.0054" x2="18.9811" y2="0" gradientUnits="userSpaceOnUse">
<stop stop-color="#C6C6C6"/>
<stop offset="1" stop-color="#C9C9C9"/>
</linearGradient>
<linearGradient id="paint1_linear_162_437" x1="5.68606" y1="12.8609" x2="5.68606" y2="27.7951" gradientUnits="userSpaceOnUse">
<stop stop-color="#989898"/>
<stop offset="1" stop-color="#C6C6C6"/>
</linearGradient>
<clipPath id="clip0_162_437">
<rect width="108.303" height="30" fill="white"/>
</clipPath>
</defs>
</svg>
