<svg width="140" height="39" viewBox="0 0 140 39" fill="none" xmlns="http://www.w3.org/2000/svg">
<g clip-path="url(#clip0_2_3647)">
<path d="M17.192 38.78V14.7C17.192 6.58 23.772 0 31.892 0V24.08C31.892 32.2 25.298 38.78 17.192 38.78Z" fill="white"/>
<path d="M14.7 38.78V27.118C14.7 18.998 8.12 12.418 0 12.418V24.08C0 32.2 6.58 38.78 14.7 38.78Z" fill="white"/>
<path d="M51.842 33.348H47.88L42.896 20.16C42.784 19.852 42.728 19.544 42.756 19.264C42.784 18.984 42.868 18.732 42.994 18.494C43.134 18.27 43.316 18.074 43.526 17.92C43.75 17.766 44.002 17.654 44.268 17.584C44.814 17.458 45.346 17.486 45.85 17.696C46.354 17.906 46.704 18.326 46.914 18.97L49.924 28.266L52.892 18.956C53.102 18.326 53.438 17.906 53.914 17.71C54.39 17.5 54.894 17.458 55.44 17.598C55.72 17.668 55.958 17.78 56.168 17.934C56.378 18.088 56.546 18.284 56.672 18.508C56.798 18.732 56.868 18.998 56.882 19.278C56.896 19.572 56.84 19.866 56.728 20.202L51.842 33.348Z" fill="white"/>
<path d="M60.662 19.1521C60.858 18.6061 61.194 18.2001 61.67 17.9341C62.146 17.6681 62.65 17.5281 63.182 17.5281C63.672 17.5281 64.162 17.6681 64.624 17.9341C65.086 18.2141 65.408 18.6061 65.59 19.1521L70.7 33.3481H66.402L65.632 30.9261H60.606L59.864 33.3481H55.636L60.662 19.1521ZM61.614 27.6221H64.61L63.126 22.7501L61.614 27.6221Z" fill="white"/>
<path d="M75.586 22.1761C75.572 22.5401 75.782 22.8481 76.216 23.1141C76.65 23.3801 77.252 23.6321 78.036 23.8981L78.988 24.2341C79.562 24.4441 80.08 24.7101 80.542 25.0181C81.004 25.3261 81.396 25.7041 81.732 26.1241C82.054 26.5441 82.306 27.0201 82.46 27.5521C82.614 28.0841 82.67 28.6581 82.642 29.2881C82.544 30.6881 81.984 31.7661 80.948 32.5361C79.912 33.3061 78.498 33.6841 76.706 33.6841C75.838 33.6841 74.984 33.5861 74.186 33.4041C73.374 33.2221 72.702 32.9141 72.17 32.4941C71.988 32.3401 71.834 32.1581 71.694 31.9621C71.568 31.7661 71.47 31.5421 71.414 31.3321C71.358 31.1081 71.344 30.8841 71.386 30.6321C71.428 30.3941 71.512 30.1561 71.666 29.9321C71.806 29.7081 72.016 29.5401 72.268 29.4281C72.534 29.3161 72.786 29.2461 73.052 29.2321C73.388 29.2181 73.668 29.2741 73.864 29.3861C74.06 29.4981 74.256 29.6101 74.438 29.7221C74.662 29.8621 74.942 29.9881 75.292 30.0861C75.642 30.1841 76.146 30.2261 76.818 30.2261C77.364 30.2261 77.784 30.1281 78.092 29.9321C78.386 29.7361 78.554 29.4281 78.568 28.9941C78.568 28.8121 78.498 28.6301 78.358 28.4621C78.218 28.2941 78.008 28.1401 77.742 27.9861C77.476 27.8461 77.168 27.7061 76.818 27.5661C76.468 27.4261 76.09 27.3001 75.684 27.1601C75.53 27.1041 75.362 27.0481 75.18 26.9781C74.998 26.9081 74.858 26.8521 74.746 26.7961C74.004 26.4881 73.402 26.0961 72.94 25.6341C72.478 25.1721 72.142 24.6681 71.918 24.1221C71.694 23.5761 71.568 23.0301 71.568 22.4561C71.568 21.8821 71.638 21.3361 71.806 20.8321C72.142 19.7821 72.772 18.9561 73.696 18.3821C74.62 17.8081 75.754 17.5281 77.084 17.5281C77.588 17.5281 78.036 17.5561 78.428 17.5981C78.806 17.6401 79.156 17.6961 79.45 17.7801C79.744 17.8501 79.996 17.9341 80.22 18.0321C80.43 18.1301 80.64 18.2281 80.822 18.3121C81.284 18.5641 81.634 18.9001 81.886 19.3481C82.138 19.7961 82.194 20.2441 82.054 20.7201C81.928 21.1261 81.704 21.4061 81.396 21.5741C81.088 21.7421 80.752 21.8261 80.374 21.8261C80.234 21.8261 80.066 21.7981 79.884 21.7421C79.702 21.6861 79.562 21.6301 79.478 21.5601C79.24 21.4061 78.946 21.2661 78.582 21.1541C78.218 21.0421 77.742 20.9721 77.154 20.9721C76.678 20.9721 76.314 21.0701 76.048 21.2521C75.74 21.4761 75.6 21.7841 75.586 22.1761Z" fill="white"/>
<path d="M88.1161 19.1521C88.3121 18.6061 88.6481 18.2001 89.1241 17.9341C89.6001 17.6681 90.1041 17.5281 90.6361 17.5281C91.1261 17.5281 91.6161 17.6681 92.0781 17.9341C92.5401 18.2141 92.8621 18.6061 93.0441 19.1521L98.1541 33.3621H93.8561L93.0861 30.9401H88.0601L87.3181 33.3621H83.0901L88.1161 19.1521ZM89.0681 27.6221H92.0641L90.5801 22.7501L89.0681 27.6221Z" fill="white"/>
<path d="M108.458 27.1882V19.3762C108.458 18.7742 108.64 18.3122 108.99 17.9902C109.354 17.6682 109.76 17.5142 110.236 17.5142C110.712 17.5142 111.118 17.6682 111.482 17.9902C111.846 18.3122 112.014 18.7742 112.014 19.3762V31.6962C112.014 31.9902 111.958 32.2562 111.832 32.4802C111.706 32.7042 111.566 32.8862 111.384 33.0542C111.202 33.2082 110.992 33.3342 110.768 33.4322C110.544 33.5302 110.32 33.5722 110.096 33.5862C109.62 33.6282 109.144 33.5442 108.654 33.3622C108.164 33.1802 107.786 32.8722 107.534 32.4522L102.76 23.9962V33.3482H99.204V19.5162C99.204 19.2222 99.26 18.9422 99.386 18.7182C99.498 18.4802 99.652 18.2842 99.848 18.1162C100.03 17.9482 100.254 17.8222 100.478 17.7382C100.716 17.6402 100.94 17.5842 101.164 17.5562C101.64 17.5002 102.116 17.5702 102.592 17.7662C103.068 17.9622 103.446 18.2702 103.684 18.6902L108.458 27.1882Z" fill="white"/>
<path d="M117.656 33.3481V21.0561H114.66C114.366 21.0561 114.128 21.0001 113.932 20.9021C113.736 20.8041 113.568 20.6641 113.442 20.4961C113.316 20.3281 113.232 20.1321 113.162 19.9221C113.106 19.7121 113.078 19.5161 113.078 19.3201C113.078 19.1241 113.106 18.9281 113.162 18.7181C113.218 18.5221 113.316 18.3401 113.442 18.1721C113.568 18.0041 113.722 17.8781 113.932 17.7801C114.128 17.6821 114.38 17.6401 114.66 17.6401H124.712C124.992 17.6401 125.244 17.6821 125.44 17.7801C125.636 17.8781 125.804 18.0041 125.93 18.1721C126.056 18.3401 126.14 18.5221 126.21 18.7181C126.266 18.9141 126.294 19.1241 126.294 19.3201C126.294 19.5161 126.266 19.7121 126.21 19.9221C126.154 20.1321 126.056 20.3141 125.93 20.4961C125.804 20.6641 125.636 20.8041 125.44 20.9021C125.244 21.0001 125.006 21.0561 124.712 21.0561H121.716V33.3481H117.656Z" fill="white"/>
<path d="M129.962 19.1521C130.158 18.6061 130.494 18.2001 130.97 17.9341C131.446 17.6681 131.95 17.5281 132.482 17.5281C132.972 17.5281 133.462 17.6681 133.924 17.9341C134.386 18.2141 134.708 18.6061 134.89 19.1521L140 33.3621H135.702L134.932 30.9401H129.906L129.164 33.3621H124.936L129.962 19.1521ZM130.928 27.6221H133.924L132.44 22.7501L130.928 27.6221Z" fill="white"/>
</g>
<defs>
<clipPath id="clip0_2_3647">
<rect width="140" height="38.78" fill="white"/>
</clipPath>
</defs>
</svg>
