<svg width="238" height="39" viewBox="0 0 238 39" fill="none" xmlns="http://www.w3.org/2000/svg">
<path d="M17.192 38.78V14.7C17.192 6.58 23.772 0 31.892 0V24.08C31.892 32.2 25.298 38.78 17.192 38.78Z" fill="white"/>
<path d="M14.7 38.78V27.118C14.7 18.998 8.12 12.418 0 12.418V24.08C0 32.2 6.58 38.78 14.7 38.78Z" fill="white"/>
<path d="M51.842 33.348H47.88L42.896 20.16C42.784 19.852 42.728 19.544 42.756 19.264C42.784 18.984 42.868 18.732 42.994 18.494C43.134 18.27 43.316 18.074 43.526 17.92C43.75 17.766 44.002 17.654 44.268 17.584C44.814 17.458 45.346 17.486 45.85 17.696C46.354 17.906 46.704 18.326 46.914 18.97L49.924 28.266L52.892 18.956C53.102 18.326 53.438 17.906 53.914 17.71C54.39 17.5 54.894 17.458 55.44 17.598C55.72 17.668 55.958 17.78 56.168 17.934C56.378 18.088 56.546 18.284 56.672 18.508C56.798 18.732 56.868 18.998 56.882 19.278C56.896 19.572 56.84 19.866 56.728 20.202L51.842 33.348Z" fill="white"/>
<path d="M60.662 19.152C60.858 18.606 61.194 18.2 61.67 17.934C62.146 17.668 62.65 17.528 63.182 17.528C63.672 17.528 64.162 17.668 64.624 17.934C65.086 18.214 65.408 18.606 65.59 19.152L70.7 33.348H66.402L65.632 30.926H60.606L59.864 33.348H55.636L60.662 19.152ZM61.614 27.622H64.61L63.126 22.75L61.614 27.622Z" fill="white"/>
<path d="M75.586 22.176C75.572 22.54 75.782 22.848 76.216 23.114C76.65 23.38 77.252 23.632 78.036 23.898L78.988 24.234C79.562 24.444 80.08 24.71 80.542 25.018C81.004 25.326 81.396 25.704 81.732 26.124C82.054 26.544 82.306 27.02 82.46 27.552C82.614 28.084 82.67 28.658 82.642 29.288C82.544 30.688 81.984 31.766 80.948 32.536C79.912 33.306 78.498 33.684 76.706 33.684C75.838 33.684 74.984 33.586 74.186 33.404C73.374 33.222 72.702 32.914 72.17 32.494C71.988 32.34 71.834 32.158 71.694 31.962C71.568 31.766 71.47 31.542 71.414 31.332C71.358 31.108 71.344 30.884 71.386 30.632C71.428 30.394 71.512 30.156 71.666 29.932C71.806 29.708 72.016 29.54 72.268 29.428C72.534 29.316 72.786 29.246 73.052 29.232C73.388 29.218 73.668 29.274 73.864 29.386C74.06 29.498 74.256 29.61 74.438 29.722C74.662 29.862 74.942 29.988 75.292 30.086C75.642 30.184 76.146 30.226 76.818 30.226C77.364 30.226 77.784 30.128 78.092 29.932C78.386 29.736 78.554 29.428 78.568 28.994C78.568 28.812 78.498 28.63 78.358 28.462C78.218 28.294 78.008 28.14 77.742 27.986C77.476 27.846 77.168 27.706 76.818 27.566C76.468 27.426 76.09 27.3 75.684 27.16C75.53 27.104 75.362 27.048 75.18 26.978C74.998 26.908 74.858 26.852 74.746 26.796C74.004 26.488 73.402 26.096 72.94 25.634C72.478 25.172 72.142 24.668 71.918 24.122C71.694 23.576 71.568 23.03 71.568 22.456C71.568 21.882 71.638 21.336 71.806 20.832C72.142 19.782 72.772 18.956 73.696 18.382C74.62 17.808 75.754 17.528 77.084 17.528C77.588 17.528 78.036 17.556 78.428 17.598C78.806 17.64 79.156 17.696 79.45 17.78C79.744 17.85 79.996 17.934 80.22 18.032C80.43 18.13 80.64 18.228 80.822 18.312C81.284 18.564 81.634 18.9 81.886 19.348C82.138 19.796 82.194 20.244 82.054 20.72C81.928 21.126 81.704 21.406 81.396 21.574C81.088 21.742 80.752 21.826 80.374 21.826C80.234 21.826 80.066 21.798 79.884 21.742C79.702 21.686 79.562 21.63 79.478 21.56C79.24 21.406 78.946 21.266 78.582 21.154C78.218 21.042 77.742 20.972 77.154 20.972C76.678 20.972 76.314 21.07 76.048 21.252C75.74 21.476 75.6 21.784 75.586 22.176Z" fill="white"/>
<path d="M88.116 19.152C88.312 18.606 88.648 18.2 89.124 17.934C89.6 17.668 90.104 17.528 90.636 17.528C91.126 17.528 91.616 17.668 92.078 17.934C92.54 18.214 92.862 18.606 93.044 19.152L98.154 33.362H93.856L93.086 30.94H88.06L87.318 33.362H83.09L88.116 19.152ZM89.068 27.622H92.064L90.58 22.75L89.068 27.622Z" fill="white"/>
<path d="M108.458 27.188V19.376C108.458 18.774 108.64 18.312 108.99 17.99C109.354 17.668 109.76 17.514 110.236 17.514C110.712 17.514 111.118 17.668 111.482 17.99C111.846 18.312 112.014 18.774 112.014 19.376V31.696C112.014 31.99 111.958 32.256 111.832 32.48C111.706 32.704 111.566 32.886 111.384 33.054C111.202 33.208 110.992 33.334 110.768 33.432C110.544 33.53 110.32 33.572 110.096 33.586C109.62 33.628 109.144 33.544 108.654 33.362C108.164 33.18 107.786 32.872 107.534 32.452L102.76 23.996V33.348H99.204V19.516C99.204 19.222 99.26 18.942 99.386 18.718C99.498 18.48 99.652 18.284 99.848 18.116C100.03 17.948 100.254 17.822 100.478 17.738C100.716 17.64 100.94 17.584 101.164 17.556C101.64 17.5 102.116 17.57 102.592 17.766C103.068 17.962 103.446 18.27 103.684 18.69L108.458 27.188Z" fill="white"/>
<path d="M117.656 33.348V21.056H114.66C114.366 21.056 114.128 21 113.932 20.902C113.736 20.804 113.568 20.664 113.442 20.496C113.316 20.328 113.232 20.132 113.162 19.922C113.106 19.712 113.078 19.516 113.078 19.32C113.078 19.124 113.106 18.928 113.162 18.718C113.218 18.522 113.316 18.34 113.442 18.172C113.568 18.004 113.722 17.878 113.932 17.78C114.128 17.682 114.38 17.64 114.66 17.64H124.712C124.992 17.64 125.244 17.682 125.44 17.78C125.636 17.878 125.804 18.004 125.93 18.172C126.056 18.34 126.14 18.522 126.21 18.718C126.266 18.914 126.294 19.124 126.294 19.32C126.294 19.516 126.266 19.712 126.21 19.922C126.154 20.132 126.056 20.314 125.93 20.496C125.804 20.664 125.636 20.804 125.44 20.902C125.244 21 125.006 21.056 124.712 21.056H121.716V33.348H117.656Z" fill="white"/>
<path d="M129.962 19.152C130.158 18.606 130.494 18.2 130.97 17.934C131.446 17.668 131.95 17.528 132.482 17.528C132.972 17.528 133.462 17.668 133.924 17.934C134.386 18.214 134.708 18.606 134.89 19.152L140 33.362H135.702L134.932 30.94H129.906L129.164 33.362H124.936L129.962 19.152ZM130.928 27.622H133.924L132.44 22.75L130.928 27.622Z" fill="white"/>
<path d="M223.291 17.2142V19.1254H219.116V20.4613H222.66V22.2797H219.116V23.7548C220.953 23.7269 222.298 23.6434 223.866 23.3929L224.107 25.2299C222.168 25.5638 220.554 25.6288 218.003 25.6195H216.853V17.2142H223.291ZM219.172 32.9115V26.9554H230.694V32.9115H219.172ZM221.528 31.0189H228.356V28.8109H221.528V31.0189ZM223.384 22.1683V20.2758H225.091V16.472H227.336V26.1761H225.091V22.1683H223.384ZM228.449 26.2875V16.2123H230.694V26.2875H228.449Z" fill="white"/>
<path d="M208.651 18.4388C208.642 20.9159 210.841 23.5599 214.663 24.2094L213.624 26.1761C210.674 25.5917 208.494 23.931 207.399 21.7694C206.286 23.9125 204.096 25.5824 201.174 26.1761L200.153 24.2094C203.911 23.5414 206.109 20.8881 206.128 18.4388V17.2142H208.651V18.4388ZM199.764 31.0189V29.0707H215.22V31.0189H199.764Z" fill="white"/>
<path d="M189.911 20.0345C189.902 23.1332 191.312 26.2411 194.179 27.4564L192.787 29.349C190.857 28.4769 189.521 26.7885 188.751 24.701C187.991 26.9833 186.608 28.8202 184.549 29.7572L183.12 27.7904C186.07 26.5472 187.508 23.3094 187.518 20.0345V17.5111H189.911V20.0345ZM195.088 33.1342V16.2123H197.481V33.1342H195.088Z" fill="white"/>
<path d="M181.079 16.2123V33.1342H178.723V16.2123H181.079ZM167.812 19.5336V17.6224H175.847V24.1351H170.28V27.2338C172.859 27.2152 175.04 27.0853 177.517 26.6771L177.721 28.5883C174.947 29.08 172.433 29.182 169.353 29.182H167.831V22.2611H173.435V19.5336H167.812Z" fill="white"/>
<path d="M159.964 17.4369V18.4945C159.964 19.6635 159.964 21.3519 159.574 23.4486L157.255 23.226C157.561 21.6117 157.635 20.3778 157.654 19.3666H151.28V17.4369H159.964ZM150.278 24.6732C151.225 24.6732 152.292 24.6732 153.414 24.6454V21.3334H155.771V24.5712C157.459 24.4969 159.175 24.3671 160.762 24.1351L160.892 25.8422C157.375 26.4916 153.423 26.5565 150.482 26.5658L150.278 24.6732ZM152.765 32.8002V27.7162H155.14V30.9076H164.621V32.8002H152.765ZM161.671 28.848V16.2123H164.102V21.3519H166.143V23.3373H164.102V28.848H161.671Z" fill="white"/>
</svg>
