<svg width="24" height="24" viewBox="0 0 24 24" fill="none" xmlns="http://www.w3.org/2000/svg">
<path d="M9 15.3522V8.64777C9 8.46424 9.06584 8.31039 9.19753 8.18623C9.32922 8.06208 9.48285 8 9.65844 8C9.71331 8 9.77092 8.0081 9.83128 8.02429C9.89163 8.04049 9.94925 8.06478 10.0041 8.09717L15.3704 11.4494C15.4691 11.5142 15.5432 11.5951 15.5926 11.6923C15.642 11.7895 15.6667 11.892 15.6667 12C15.6667 12.108 15.642 12.2105 15.5926 12.3077C15.5432 12.4049 15.4691 12.4858 15.3704 12.5506L10.0041 15.9028C9.94925 15.9352 9.89163 15.9595 9.83128 15.9757C9.77092 15.9919 9.71331 16 9.65844 16C9.48285 16 9.32922 15.9379 9.19753 15.8138C9.06584 15.6896 9 15.5358 9 15.3522Z" fill="white"/>
</svg>
