<svg width="16" height="16" viewBox="0 0 16 16" fill="currentColor" xmlns="http://www.w3.org/2000/svg">
<path fill-rule="evenodd" clip-rule="evenodd" d="M8 16C12.418 16 16 12.418 16 8C16 3.58203 12.418 0 8 0C3.58203 0 0 3.58203 0 8C0 12.418 3.58203 16 8 16ZM5.28027 6.21973C4.9873 5.92676 4.5127 5.92676 4.21973 6.21973C3.92676 6.5127 3.92676 6.9873 4.21973 7.28027L7.21973 10.2803C7.5127 10.5732 7.9873 10.5732 8.28027 10.2803L11.2803 7.28027C11.5732 6.9873 11.5732 6.5127 11.2803 6.21973C11.1602 6.09961 11.0098 6.0293 10.8535 6.00684C10.6289 5.97559 10.3926 6.04688 10.2197 6.21973L7.75 8.68945L5.28027 6.21973Z" fill="currentColor"/>
</svg>
