<svg width="16" height="17" viewBox="0 0 16 17" fill="none" xmlns="http://www.w3.org/2000/svg">
<mask id="mask0_178_3509" style="mask-type:alpha" maskUnits="userSpaceOnUse" x="0" y="0" width="16" height="17">
<rect y="0.5" width="16" height="16" fill="#A9ACB3"/>
</mask>
<g mask="url(#mask0_178_3509)">
<path d="M3.99935 15.1667C3.63268 15.1667 3.31879 15.0361 3.05768 14.775C2.79657 14.5139 2.66602 14.2 2.66602 13.8333V7.16666C2.66602 6.79999 2.79657 6.4861 3.05768 6.22499C3.31879 5.96388 3.63268 5.83332 3.99935 5.83332H4.66602V4.49999C4.66602 3.57777 4.99102 2.79166 5.64102 2.14166C6.29102 1.49166 7.07713 1.16666 7.99935 1.16666C8.92157 1.16666 9.70768 1.49166 10.3577 2.14166C11.0077 2.79166 11.3327 3.57777 11.3327 4.49999V5.83332H11.9993C12.366 5.83332 12.6799 5.96388 12.941 6.22499C13.2021 6.4861 13.3327 6.79999 13.3327 7.16666V13.8333C13.3327 14.2 13.2021 14.5139 12.941 14.775C12.6799 15.0361 12.366 15.1667 11.9993 15.1667H3.99935ZM7.99935 11.8333C8.36602 11.8333 8.6799 11.7028 8.94102 11.4417C9.20213 11.1805 9.33268 10.8667 9.33268 10.5C9.33268 10.1333 9.20213 9.81944 8.94102 9.55832C8.6799 9.29721 8.36602 9.16666 7.99935 9.16666C7.63268 9.16666 7.31879 9.29721 7.05768 9.55832C6.79657 9.81944 6.66602 10.1333 6.66602 10.5C6.66602 10.8667 6.79657 11.1805 7.05768 11.4417C7.31879 11.7028 7.63268 11.8333 7.99935 11.8333ZM5.99935 5.83332H9.99935V4.49999C9.99935 3.94443 9.8049 3.47221 9.41602 3.08332C9.02713 2.69443 8.5549 2.49999 7.99935 2.49999C7.44379 2.49999 6.97157 2.69443 6.58268 3.08332C6.19379 3.47221 5.99935 3.94443 5.99935 4.49999V5.83332Z" fill="#A9ACB3"/>
</g>
</svg>
