<svg width="24" height="24" viewBox="0 0 24 24" fill="none" xmlns="http://www.w3.org/2000/svg">
<path d="M4.57564 18.2926C4.01451 18.2926 3.51574 18.0159 3.204 17.5548C2.86109 16.9707 2.95461 16.2329 3.45339 15.7718L4.88737 14.5115V9.37777C4.88737 5.44296 8.22294 2 11.9949 2C15.7981 2 19.1337 5.44296 19.1337 9.37777V14.5115L20.5677 15.7718C21.0664 16.2329 21.1911 16.9707 20.817 17.5548C20.5365 18.0159 20.0065 18.2926 19.4454 18.2926H4.57564Z" stroke="#292A2B" stroke-width="2" stroke-miterlimit="10" stroke-linecap="round" stroke-linejoin="round"/>
<path d="M15.954 18.3848C15.954 20.5366 14.1771 22.2888 12.0261 22.2888C9.84398 22.2888 8.09827 20.5366 8.09827 18.3848H15.954Z" stroke="#292A2B" stroke-width="2" stroke-miterlimit="10" stroke-linecap="round" stroke-linejoin="round"/>
</svg>
