<svg width="20" height="20" viewBox="0 0 20 20" fill="none" xmlns="http://www.w3.org/2000/svg">
<mask id="mask0_76_207" style="mask-type:alpha" maskUnits="userSpaceOnUse" x="0" y="0" width="20" height="20">
<rect width="20" height="20" fill="#D9D9D9"/>
</mask>
<g mask="url(#mask0_76_207)">
<path d="M4.4231 17.0833C4.00216 17.0833 3.64585 16.9375 3.35419 16.6458C3.06252 16.3541 2.91669 15.9978 2.91669 15.5769V4.4231C2.91669 4.00216 3.06252 3.64585 3.35419 3.35419C3.64585 3.06252 4.00216 2.91669 4.4231 2.91669H10.008V4.16667H4.4231C4.35899 4.16667 4.30022 4.19338 4.24679 4.24679C4.19337 4.30022 4.16667 4.35899 4.16667 4.4231V15.5769C4.16667 15.641 4.19337 15.6998 4.24679 15.7532C4.30022 15.8066 4.35899 15.8333 4.4231 15.8333H10.008V17.0833H4.4231ZM13.5256 13.5576L12.6603 12.6538L14.6891 10.625H7.58012V9.37502H14.6891L12.6603 7.34617L13.5256 6.44235L17.0833 10L13.5256 13.5576Z" fill="white"/>
</g>
</svg>
