<svg width="24" height="24" viewBox="0 0 24 24" fill="none" xmlns="http://www.w3.org/2000/svg">
<path fill-rule="evenodd" clip-rule="evenodd" d="M7.71556 8.62141C7.71556 8.62141 7.29143 8.62141 6.91044 8.99521V7.5H5.96875V11.4321H6.92482V11.123C6.92482 11.123 7.14766 11.5256 7.71556 11.5256C7.71556 11.5256 9.04543 11.4752 9.04543 10.0591C9.04543 10.0591 8.99511 8.62141 7.71556 8.62141ZM7.50709 10.6989C7.16923 10.6989 6.90325 10.4257 6.90325 10.095C6.90325 9.75719 7.17642 9.49121 7.50709 9.49121C7.84495 9.49121 8.11092 9.76438 8.11092 10.095C8.11092 10.4257 7.84495 10.6989 7.50709 10.6989Z" fill="#292A2B"/>
<path d="M9.34717 8.31943V7.40649C10.7274 7.40649 10.6914 8.88732 10.6914 8.88732V11.4321H9.77848V9.10298C9.77848 8.29787 9.34717 8.31943 9.34717 8.31943Z" fill="#292A2B"/>
<path fill-rule="evenodd" clip-rule="evenodd" d="M12.9126 8.63574C12.9126 8.63574 11.3527 8.63574 11.3527 10.095C11.3527 10.095 11.3024 11.5327 12.9126 11.5327C12.9126 11.5327 14.5085 11.5327 14.5085 10.095C14.5093 10.0596 14.5424 8.63574 12.9126 8.63574ZM12.9126 10.6988C12.5748 10.6988 12.3088 10.4257 12.3088 10.095C12.3088 9.75715 12.5819 9.49117 12.9126 9.49117C13.2505 9.49117 13.5165 9.76434 13.5165 10.095C13.5165 10.4257 13.2433 10.6988 12.9126 10.6988Z" fill="#292A2B"/>
<path fill-rule="evenodd" clip-rule="evenodd" d="M17.1107 8.99521V8.73643H18.0237V11.3962C18.0237 12.8842 16.6435 12.8698 16.6435 12.8698H16.2768V12.0359H16.5069C17.1754 12.0359 17.1107 11.3459 17.1107 11.3459V11.123C16.816 11.504 16.284 11.4824 16.284 11.4824C14.9685 11.4824 14.9829 10.0807 14.9829 10.0807C14.9829 8.57828 16.32 8.63579 16.32 8.63579C16.8376 8.63579 17.1107 8.99521 17.1107 8.99521ZM15.939 10.0951C15.939 10.4257 16.205 10.6989 16.5428 10.6989C16.8807 10.6989 17.1538 10.4257 17.1467 10.0951C17.1467 9.76438 16.8807 9.49122 16.5428 9.49122C16.2121 9.49122 15.939 9.75719 15.939 10.0951Z" fill="#292A2B"/>
<path fill-rule="evenodd" clip-rule="evenodd" d="M17.3986 21C19.3898 21 21 19.3826 21 17.3986V6.60144C21 4.61022 19.3898 3 17.3986 3H6.60144C4.61022 3 3 4.61022 3 6.60144V17.3986C3 19.3826 4.61022 21 6.60144 21H17.3986ZM6.72352 4.37305H17.269C18.6133 4.37305 19.7059 5.47289 19.6988 6.81714V12.6111C19.6988 13.9625 18.6061 15.0552 17.2619 15.0552H13.6317L12.3952 17.0751C12.3952 17.0751 12.3809 17.0967 12.3521 17.1326C12.2802 17.2548 12.1436 17.3411 11.9927 17.3411C11.8417 17.3411 11.7052 17.2548 11.6333 17.1326C11.6045 17.0967 11.5901 17.0751 11.5901 17.0751L10.3537 15.0552H6.72352C5.37927 15.0552 4.28662 13.9625 4.28662 12.6111V6.81714C4.28662 5.4657 5.37927 4.37305 6.72352 4.37305Z" fill="#292A2B"/>
</svg>
